#!OML:ASF F:\VICON\USERDATA\INSTALL\rory3\rory3.ASF
:FULLY-SPECIFIED
:DEGREES
160
root 0.870155 23.2572 -0.806248 4.35569 -3.93175 -0.857488
lowerback 3.93958 1.38752 0.931441
upperback -2.76889 1.93381 0.451895
thorax -5.058 0.934727 -0.213859
lowerneck -18.1872 -2.95005 -7.03844
upperneck 10.6409 -3.41754 7.91788
head 6.46591 -1.27663 3.33763
rclavicle -1.92573e-016 -1.04362e-014
rhumerus -26.2754 -16.2276 -52.0933
rradius 54.0576
rwrist 14.9719
rhand -22.4853 -0.388356
rfingers 7.12502
rthumb 3.94012 -30.3317
lclavicle -1.92573e-016 -1.04362e-014
lhumerus -45.2641 -24.5549 68.112
lradius 60.2061
lwrist 1.34798
lhand -36.3044 16.3842
lfingers 7.12502
lthumb -9.40354 46.1544
rfemur -4.27787 12.0467 17.2102
rtibia 14.9368
rfoot 16.3053 -27.49
rtoes 11.5259
lfemur -4.00161 -1.44246 -17.9223
ltibia 12.6583
lfoot 22.2392 26.7349
ltoes 15.8816
161
root 0.859589 23.4928 -0.86523 3.29326 -3.69055 -0.970485
lowerback 5.67438 1.31535 0.959215
upperback -2.27622 1.85944 0.485488
thorax -5.53279 0.894296 -0.226669
lowerneck -18.1667 -3.01072 -7.12318
upperneck 9.62597 -3.47087 8.24307
head 6.15117 -1.28479 3.4443
rclavicle 1.70194e-014 7.35503e-015
rhumerus -26.3257 -16.759 -52.6441
rradius 52.9808
rwrist 15.6979
rhand -22.8244 -0.373128
rfingers 7.12502
rthumb 3.61266 -30.3223
lclavicle 1.70194e-014 7.35503e-015
lhumerus -43.8324 -21.2953 67.4377
lradius 58.8761
lwrist 1.0591
lhand -36.0519 17.1066
lfingers 7.12502
lthumb -9.15993 46.8876
rfemur -3.89116 11.2972 17.6761
rtibia 16.6054
rfoot 19.3226 -23.8026
rtoes 9.80018
lfemur -3.84019 -0.505439 -17.748
ltibia 14.3665
lfoot 24.0791 22.5439
ltoes 15.0239
162
root 0.853055 23.711 -0.92521 2.40647 -3.40576 -0.823119
lowerback 7.22386 1.27538 0.775385
upperback -1.85324 1.80232 0.438084
thorax -5.97729 0.868554 -0.20004
lowerneck -18.0087 -3.06218 -7.17887
upperneck 8.52801 -3.49983 8.43882
head 5.78482 -1.29562 3.50681
rclavicle -6.3549e-015 1.35174e-014
rhumerus -26.5456 -17.0671 -53.123
rradius 52.0077
rwrist 16.1301
rhand -23.131 -0.951638
rfingers 7.12502
rthumb 3.3166 -30.9056
lclavicle -6.3549e-015 1.35174e-014
lhumerus -42.4298 -18.1363 66.9386
lradius 57.3053
lwrist 0.614467
lhand -35.6741 18.2476
lfingers 7.12502
lthumb -8.79531 48.0443
rfemur -3.74633 10.5647 17.7576
rtibia 18.3923
rfoot 21.9282 -20.4327
rtoes 8.50521
lfemur -3.80502 0.348012 -17.8277
ltibia 15.7335
lfoot 26.9229 20.26
ltoes 12.2954
163
root 0.845914 23.9222 -0.988614 1.71339 -3.14408 -0.641284
lowerback 8.63298 1.25403 0.529878
upperback -1.51995 1.7553 0.375504
thorax -6.43555 0.849836 -0.151618
lowerneck -17.9751 -3.11816 -7.04467
upperneck 7.77921 -3.56012 8.40023
head 5.54479 -1.32907 3.46174
rclavicle 2.85132e-015 1.09332e-014
rhumerus -26.9157 -17.1539 -53.6086
rradius 51.1711
rwrist 16.3633
rhand -23.1156 -1.75822
rfingers 7.12502
rthumb 3.33148 -31.7119
lclavicle 2.85132e-015 1.09332e-014
lhumerus -41.2044 -15.0953 66.5366
lradius 55.7241
lwrist 0.105956
lhand -35.0238 19.3871
lfingers 7.12502
lthumb -8.16777 49.2093
rfemur -3.84116 10.0602 17.7656
rtibia 20.1317
rfoot 23.8302 -19.0207
rtoes 4.04736
lfemur -3.87822 0.682002 -17.9335
ltibia 16.6628
lfoot 28.8653 18.8242
ltoes 9.45032
164
root 0.840476 24.1293 -1.05145 1.28077 -2.95852 -0.391056
lowerback 9.73836 1.25343 0.240887
upperback -1.26538 1.71931 0.276708
thorax -6.80206 0.838449 -0.11064
lowerneck -17.9156 -3.17037 -6.9295
upperneck 7.30468 -3.6349 8.41409
head 5.39037 -1.36558 3.43754
rclavicle 1.65178e-014 1.65985e-014
rhumerus -27.2508 -17.0476 -54.145
rradius 50.3014
rwrist 16.4486
rhand -23.1597 -2.42969
rfingers 7.12502
rthumb 3.28886 -32.3841
lclavicle 1.65178e-014 1.65985e-014
lhumerus -40.1579 -12.2175 66.1858
lradius 54.2636
lwrist -0.50519
lhand -34.6377 20.255
lfingers 7.12502
lthumb -7.7951 50.0913
rfemur -4.21546 9.7702 17.6343
rtibia 21.6782
rfoot 25.3923 -18.3717
rtoes 3.11291
lfemur -4.04008 0.345187 -18.1443
ltibia 17.0796
lfoot 29.921 17.864
ltoes 8.1581
165
root 0.835179 24.3284 -1.09382 1.04433 -2.93303 -0.0952059
lowerback 10.3109 1.33454 -0.105774
upperback -1.01559 1.77665 0.168188
thorax -6.87007 0.876504 -0.0490831
lowerneck -17.8475 -3.21028 -6.90536
upperneck 7.05861 -3.69777 8.52943
head 5.30983 -1.39057 3.46346
rclavicle -1.44554e-014 8.44835e-016
rhumerus -27.5395 -16.8677 -54.6743
rradius 49.2042
rwrist 16.3138
rhand -23.6914 -2.80868
rfingers 7.12502
rthumb 2.77539 -32.7704
lclavicle -1.44554e-014 8.44835e-016
lhumerus -39.1937 -9.67961 66.0285
lradius 52.7857
lwrist -0.760194
lhand -34.5693 21.6838
lfingers 7.12502
lthumb -7.72908 51.5225
rfemur -4.64862 9.75252 17.4122
rtibia 22.9002
rfoot 26.4294 -17.787
rtoes 4.3276
lfemur -4.11084 -0.306432 -18.4384
ltibia 17.0137
lfoot 29.8776 17.2157
ltoes 8.36096
166
root 0.829279 24.5159 -1.1085 0.852767 -3.01016 0.145749
lowerback 10.5535 1.43873 -0.426981
upperback -0.832108 1.86709 0.0772529
thorax -6.82071 0.930448 0.0180384
lowerneck -17.7383 -3.19245 -6.80565
upperneck 7.08136 -3.70781 8.55351
head 5.29928 -1.39311 3.4544
rclavicle -3.03084e-014 -1.44616e-014
rhumerus -27.8185 -16.4809 -55.2373
rradius 47.9086
rwrist 16.1887
rhand -24.085 -2.99303
rfingers 7.12502
rthumb 2.39522 -32.9593
lclavicle -3.03084e-014 -1.44616e-014
lhumerus -38.483 -7.51783 66.0411
lradius 51.3252
lwrist -0.41224
lhand -34.1447 22.8329
lfingers 7.12502
lthumb -7.31922 52.6863
rfemur -4.90415 9.9752 17.2618
rtibia 23.7613
rfoot 26.789 -17.0292
rtoes 5.396
lfemur -3.85725 -1.23704 -18.7028
ltibia 16.4613
lfoot 28.8484 17.0444
ltoes 8.95529
167
root 0.824549 24.6926 -1.10578 0.684233 -2.99346 0.387029
lowerback 10.7148 1.46628 -0.734473
upperback -0.76066 1.8563 -0.0206455
thorax -6.84312 0.934128 0.0867546
lowerneck -17.5958 -3.10402 -6.62413
upperneck 7.32761 -3.65195 8.53491
head 5.34579 -1.36294 3.42606
rclavicle 2.58669e-014 8.79622e-015
rhumerus -28.0527 -16.0069 -55.8617
rradius 46.5211
rwrist 16.5742
rhand -23.776 -2.90283
rfingers 7.12502
rthumb 2.69366 -32.8656
lclavicle 2.58669e-014 8.79622e-015
lhumerus -38.0107 -5.65451 66.0822
lradius 49.908
lwrist 0.0642704
lhand -33.8158 23.2433
lfingers 7.12502
lthumb -7.00173 53.1075
rfemur -4.92122 10.2737 17.1269
rtibia 24.2356
rfoot 26.8533 -16.4601
rtoes 5.72417
lfemur -3.41194 -2.16982 -18.9578
ltibia 15.5524
lfoot 28.4038 17.5903
ltoes 7.9533
168
root 0.823531 24.86 -1.09502 0.767119 -2.83537 0.843851
lowerback 10.5758 1.42092 -1.24298
upperback -0.799643 1.72377 -0.142763
thorax -6.81606 0.885749 0.269185
lowerneck -17.4852 -3.00435 -6.53379
upperneck 7.72904 -3.56164 8.47207
head 5.44388 -1.31969 3.40254
rclavicle 4.77083e-015 -1.14301e-014
rhumerus -28.2249 -15.5716 -56.4444
rradius 45.1744
rwrist 17.1866
rhand -22.7715 -2.73847
rfingers 7.12502
rthumb 3.66375 -32.6867
lclavicle 4.77083e-015 -1.14301e-014
lhumerus -37.7034 -4.09797 66.3099
lradius 48.4381
lwrist 0.86583
lhand -34.2551 23.7113
lfingers 7.12502
lthumb -7.42583 53.561
rfemur -5.00323 10.5617 16.6782
rtibia 24.3341
rfoot 26.695 -16.2085
rtoes 5.49835
lfemur -3.23466 -2.88267 -19.4388
ltibia 14.5659
lfoot 27.7236 17.8003
ltoes 6.82211
169
root 0.827401 25.0183 -1.08586 1.15014 -2.48079 1.18551
lowerback 10.1949 1.27858 -1.51502
upperback -0.958567 1.49663 -0.275039
thorax -6.76825 0.782968 0.32655
lowerneck -17.3655 -2.92085 -6.43223
upperneck 8.22319 -3.49333 8.34803
head 5.56994 -1.29065 3.3559
rclavicle -1.04377e-014 -9.16894e-015
rhumerus -28.4499 -15.2746 -57.0858
rradius 43.8241
rwrist 17.7602
rhand -22.0398 -3.01669
rfingers 7.12502
rthumb 4.3703 -32.9516
lclavicle -1.04377e-014 -9.16894e-015
lhumerus -37.466 -2.97159 66.6446
lradius 46.921
lwrist 2.01167
lhand -34.9094 23.8603
lfingers 7.12502
lthumb -8.05736 53.6868
rfemur -5.2301 10.8019 16.291
rtibia 24.0811
rfoot 26.1737 -16.3359
rtoes 5.22905
lfemur -3.49247 -3.63699 -19.7824
ltibia 13.7653
lfoot 26.5136 18.3714
ltoes 6.48384
170
root 0.830072 25.1636 -1.07702 1.67265 -2.06543 1.15443
lowerback 9.6888 1.09294 -1.38098
upperback -1.15555 1.27048 -0.322862
thorax -6.68045 0.667383 0.244213
lowerneck -17.243 -2.82593 -6.31025
upperneck 8.70859 -3.40937 8.19747
head 5.69104 -1.25547 3.29909
rclavicle -8.90804e-015 -4.31114e-015
rhumerus -28.6528 -15.1432 -57.7383
rradius 42.3796
rwrist 18.4289
rhand -21.5929 -2.86535
rfingers 7.12502
rthumb 4.80183 -32.7909
lclavicle -8.90804e-015 -4.31114e-015
lhumerus -37.2703 -2.03771 66.9253
lradius 45.5046
lwrist 2.73863
lhand -34.8227 23.6493
lfingers 7.12502
lthumb -7.97368 53.4789
rfemur -5.46131 11.1224 16.3348
rtibia 23.5669
rfoot 25.3519 -16.3439
rtoes 4.23996
lfemur -3.98339 -4.20076 -19.6902
ltibia 13.1825
lfoot 25.1539 19.2709
ltoes 6.29174
171
root 0.828362 25.2974 -1.06276 2.11671 -1.66897 0.923464
lowerback 9.21153 0.882859 -1.12148
upperback -1.34248 1.03115 -0.265473
thorax -6.59857 0.542391 0.200714
lowerneck -17.0265 -2.67871 -6.25016
upperneck 9.07648 -3.24261 8.08641
head 5.75574 -1.18244 3.27332
rclavicle 6.56611e-015 6.47293e-015
rhumerus -28.8385 -14.9608 -58.3298
rradius 40.9553
rwrist 19.0472
rhand -21.2896 -2.28189
rfingers 7.12502
rthumb 5.09473 -32.2006
lclavicle 6.56611e-015 6.47293e-015
lhumerus -37.2013 -0.972789 67.0907
lradius 44.151
lwrist 2.68568
lhand -33.7609 23.9108
lfingers 7.12502
lthumb -6.94878 53.7768
rfemur -5.50956 11.6448 16.6438
rtibia 22.8638
rfoot 24.3762 -16.2036
rtoes 2.86803
lfemur -4.52471 -4.4541 -19.3601
ltibia 12.9246
lfoot 23.6682 19.8813
ltoes 3.72323
172
root 0.823049 25.4191 -1.04449 2.43985 -1.27157 0.977032
lowerback 8.79652 0.703555 -1.21505
upperback -1.4497 0.786528 -0.272543
thorax -6.47325 0.425939 0.286304
lowerneck -16.7475 -2.55747 -6.12611
upperneck 9.17439 -3.11053 7.96264
head 5.72663 -1.12841 3.22769
rclavicle -1.45249e-014 1.20451e-014
rhumerus -29.064 -14.9744 -58.8659
rradius 39.749
rwrist 19.618
rhand -20.93 -1.8985
rfingers 7.12502
rthumb 5.4419 -31.8086
lclavicle -1.45249e-014 1.20451e-014
lhumerus -37.0277 0.0165745 67.2133
lradius 42.812
lwrist 1.99718
lhand -32.5756 24.4256
lfingers 7.12502
lthumb -5.80451 54.3261
rfemur -5.39572 12.283 16.6533
rtibia 22.05
rfoot 23.273 -16.2826
rtoes 1.91935
lfemur -5.10561 -4.419 -19.3506
ltibia 13.0331
lfoot 22.1649 19.9227
ltoes 0.752972
173
root 0.818165 25.5247 -1.0296 2.83741 -0.871206 1.07676
lowerback 8.34817 0.55987 -1.33805
upperback -1.5176 0.588992 -0.261697
thorax -6.28768 0.333335 0.398721
lowerneck -16.6171 -2.49389 -6.09962
upperneck 9.18321 -3.01787 7.81592
head 5.69785 -1.0963 3.18566
rclavicle -7.63457e-015 -3.2551e-015
rhumerus -29.3273 -15.1216 -59.2878
rradius 38.8086
rwrist 19.9788
rhand -20.5169 -1.85053
rfingers 7.12502
rthumb 5.8408 -31.75
lclavicle -7.63457e-015 -3.2551e-015
lhumerus -36.8008 0.589899 67.6363
lradius 41.5763
lwrist 1.98563
lhand -31.5282 23.577
lfingers 7.12502
lthumb -4.79321 53.5028
rfemur -5.35273 12.9094 16.5714
rtibia 21.1687
rfoot 22.0438 -16.4377
rtoes 0.605689
lfemur -5.89243 -4.30614 -19.4102
ltibia 13.4323
lfoot 20.8477 19.7587
ltoes -0.842907
